#
#
#

mtllib [etkjdoiqwhuiorhvuier.mtl


#
# dingus
#
g dingus


#
# dingus_dingus
#
usemtl dingus_dingus

v -1351.912720 184.651169 374.441010
v -869.994812 -28.438360 399.983643
v -1011.515686 319.716034 642.108765
v -1173.215332 48.792526 431.971161
v -924.653442 45.005329 502.267975
v -1215.198608 1327.204346 331.604065
v -880.226501 1284.247192 483.525238
v -841.392639 1490.160034 210.559509
v -1051.375732 1312.743164 439.043060
v -1078.878174 1467.498535 213.107086
v -1265.894775 183.019867 -523.941772
v -924.974915 201.710480 -712.028564
v -1146.118408 200.611298 -651.150208
v -1019.677368 96.076782 -569.656250
v -870.150574 79.589195 -628.460999
v -521.509949 1580.025513 -458.248199
v -752.042053 1551.553223 -551.739502
v 834.790710 283.248230 546.723511
v 424.719849 191.917328 589.784851
v 538.824097 -41.005459 499.175842
v 700.912598 265.765594 613.137024
v 732.494995 48.400238 601.849854
v 489.611725 -14.720725 588.852539
v 830.796265 28.886618 528.223511
v 180.227310 1461.899292 399.276764
v 298.194977 1139.767578 518.019714
v 375.962250 1346.897095 526.867798
v 648.356934 186.487106 -581.915283
v 613.022705 -24.060768 -394.164551
v 904.729187 254.971649 -424.123413
v 837.033264 89.208702 -404.455292
v 605.601013 17.001469 -540.306763
v 365.335510 1400.661865 -243.456833
v 775.125305 1641.459473 -125.256355
v 866.472046 1641.481201 -234.674591
v 635.986023 1279.133057 -303.191254
v 393.228973 1310.156006 -335.030731
v -460.675049 189.082947 -746.762817
v 98.540329 177.795822 -722.221863
v 83.743111 -37.469833 -544.904602
v -461.658569 41.144470 -700.935669
v -353.271393 222.675446 -751.900452
v 57.310909 22.015818 -696.132935
v 163.059677 1255.251709 -617.077820
v -522.847473 1439.819946 -652.637695
v 172.213562 1372.206543 -501.160370
v -492.196136 1510.330444 -568.599060
v 124.039688 1430.506714 -395.630707
v 71.265793 168.556549 591.442688
v -499.943115 37.728111 544.885315
v 96.383591 -76.704529 409.325653
v -225.120636 23.484221 532.568481
v -201.225616 -52.224762 399.690674
v 99.371002 -42.163879 543.394958
v 3.699504 1404.943970 377.526398
v -357.089050 1367.559814 295.101532
v 3.922052 1120.800171 518.943726
v 20.606604 1288.602539 461.864441
v 220.396072 1360.965820 525.610840
v -358.946930 1264.253296 414.346954
v -1469.522949 763.737122 387.896942
v -1241.459961 248.743057 515.555176
v -1531.331055 455.947754 -673.071350
v -1460.681152 886.704529 -688.557251
v -1014.241211 432.605286 -816.936340
v -1537.181030 631.203125 -697.957275
v -1379.611572 647.148682 -813.205627
v -1253.285156 934.647705 -820.153564
v -1109.051758 593.120789 -870.294617
v 703.410950 454.198029 -586.593567
v 580.659424 857.253601 -513.921143
v 1004.654785 1080.935669 -372.513855
v 972.469910 494.349609 -468.252380
v 877.048279 973.258240 -486.478973
v 1080.422241 994.126343 -211.629272
v 1041.471436 808.481995 -234.319153
v 737.723755 733.029907 519.561462
v 367.419373 584.443359 627.337891
v 540.440002 913.757874 491.251801
v 453.859985 1070.232910 493.343262
v 307.547760 817.217590 635.825500
v 66.366524 489.038574 680.217468
v 150.095673 911.649048 650.808044
v -460.053101 773.964417 765.235535
v -91.101929 619.420654 765.646973
v -81.115723 715.407349 769.037048
v -104.346939 860.457764 725.802368
v 145.026749 470.958527 -668.990845
v -466.186890 475.702362 -760.208191
v -364.041992 915.325989 -790.623291
v 157.892426 866.100403 -672.745361
v 163.914627 689.947876 -632.041931
v 1021.819092 1688.053467 -278.107666
v 43.996998 1755.691406 438.035492
v 1022.924683 1240.915283 692.800659
v 960.769836 996.592285 634.087769
v -1021.027161 3.794849 -74.222473
v -1451.911743 162.490768 -181.007492
v -679.523376 1637.269531 -270.191315
v -954.432129 1594.290405 -369.415070
v 934.225464 86.754715 -98.410118
v 915.034973 88.840195 6.439754
v 137.981369 1437.564209 -190.476364
v -311.178528 1588.724365 -227.393906
v 132.700272 1468.570801 -0.780068
v -47.053535 1518.540039 -238.493637
v -444.000519 -11.856527 -554.044800
v -602.891785 -30.557877 -38.713642
v -257.228149 -9.917827 -556.128296
v 853.333374 669.630615 188.327911
v 987.459351 750.406067 16.435629
v -1626.083374 370.129547 -435.409607
v -1679.892578 626.074280 -474.020813
v -1668.463867 375.102203 -253.352539
v -1676.844971 848.462158 -225.379822
v 910.369690 1567.711548 -303.585693
v 1251.485962 1324.865356 166.212341
v 1068.667603 931.649963 244.419571
v -1440.715332 182.004227 201.817001
v -1492.721313 175.942886 -58.603161
v -1292.916870 25.482094 207.934357
v -1316.136230 46.078846 -22.263046
v -1226.562256 1483.540283 -214.322617
v -756.167419 1625.778931 -114.912369
v -997.331726 1595.181396 -193.650009
v 634.157288 -21.455818 -38.027271
v 892.921326 33.074913 350.910248
v 793.406433 15.149487 77.610023
v 120.184280 1498.695312 131.268524
v 145.174057 1490.018799 311.003143
v 534.063782 1639.979980 101.668732
v -358.324371 1564.689453 -34.193760
v -359.093323 1458.433716 175.321198
v -8.586652 1436.634399 290.667725
v 1.246787 1481.425659 -18.378511
v 68.293465 -41.583118 -69.472160
v -1003.313049 -33.671200 216.778381
v 831.626221 420.950562 419.874603
v 982.078430 872.005554 168.092590
v 717.068359 844.957703 462.005280
v -1661.397583 380.362854 -137.808548
v -1595.869629 466.660767 156.168411
v -1588.669189 805.563049 187.948761
v -1728.460327 640.379395 -228.655136
v 630.227173 1731.626465 146.304443
v 1182.170166 1253.271851 559.043457
v 954.979126 933.336060 453.497833
v -1040.628662 1292.172852 -730.358337
v 495.479767 1022.894592 -483.370453
v 319.127319 1089.786499 573.905090
v 434.830963 1278.630493 693.474426
v -438.065521 923.737244 731.064026
v 154.007507 1072.749756 -692.767822
v -1431.658691 1244.486694 -439.858276
v -1502.204834 1236.817017 -260.660187
v -1528.991089 1204.319336 -122.418983
v -856.666748 1114.202759 604.218872
v -1074.990234 1451.742676 -565.735291
v 696.301453 1215.175781 -373.045715
v 447.946411 1106.382080 -434.134918
v 381.914124 1255.156250 563.941833
v 209.492828 1087.997192 564.064148
v -241.294342 1268.097778 -708.008118
v 1023.266235 1617.148560 -90.098061
v 1121.388062 1603.296265 182.807739
v -1407.364258 1367.560181 -194.848068
v -1265.086792 1387.022827 133.388535
v -1131.203613 1177.739990 497.218079
v -693.117615 1299.986572 -753.307556
v -415.199280 1058.782104 631.828796
v -1294.468140 1392.296387 -422.728119
v -1454.783081 450.159912 375.478241
v -1272.421875 594.643188 543.748352
v -949.273132 695.327698 691.903076
v -1379.076050 482.198608 -784.691711
v 1041.149902 599.235901 -242.177338
v 978.284058 713.648438 -475.066833
v 765.261108 629.912781 -544.275757
v 489.272034 709.651001 603.240723
v -542.726746 467.178741 709.240112
v -103.054153 679.201172 -674.506592
v -513.834778 655.254272 -786.594299
v -1678.849854 487.296478 -472.769775
v -1729.825806 502.258118 -238.730606
v 377.188354 1630.485107 547.997070
v -1227.398926 918.997498 567.482178
v -1403.624146 987.585388 386.366394
v -994.082825 901.370789 -880.317688
v 959.069824 1178.298218 -384.348083
v 1232.594238 1418.633667 163.631638
v -1597.448975 878.240784 -479.666962
v -858.965576 965.277039 661.580322
v -1270.532593 1267.560913 -632.926270
v 802.742126 1094.450684 -469.470398
v 538.321594 945.052307 -493.250824
v 426.172577 1127.991821 490.717041
v 423.207458 1195.865601 671.286194
v 43.152817 1034.087158 577.395020
v -401.014618 1127.663330 -780.660156
v 730.046753 1306.021362 727.926941
v 1101.979614 1372.744629 433.715027
v -1493.271484 1079.786865 188.901550
v 900.823120 1704.330444 -305.484772
v 505.474243 1682.447021 295.327148
v 296.458282 1403.800537 469.683472
v 1004.583435 1844.709106 -459.560272
v 175.462524 1720.695068 325.196899
v 1106.642334 1263.271240 -124.773758
v 614.099670 1177.126831 746.062622
v 673.596558 1049.194092 675.858032
v 819.929871 970.150391 563.579224
v 783.619446 1204.652954 732.532532
v 794.187439 1767.381470 163.082062
v 963.983704 1528.127686 -290.642212
v 1239.130737 1161.036133 114.160095
v 1252.051392 1278.252075 322.669830
v 454.687317 1118.837769 635.408569
v 127.849350 1639.834229 343.076813
v 1086.486206 937.488342 -3.241370
v 934.609009 1637.180664 -350.343201
v 1207.816284 1162.336304 40.185402
v 1118.715332 1109.031006 -74.808891
v 1121.135864 1011.213379 80.104401
v 896.145508 1732.729370 -73.120163
v 1084.854736 1604.051025 329.953644
v 854.442871 1672.816040 433.211639
v 1077.345703 1026.361572 587.820068
v 1164.781738 1061.625977 506.108154
v 1054.715332 918.199036 358.557343
v 938.752747 1669.620117 351.680206
v 314.683472 1600.934570 195.429565
v 1215.656982 1119.759521 317.844940
v 1113.062622 1503.424927 -8.646265
v 692.837036 1387.183716 661.835876
v 945.314392 1367.218018 590.558838
v 1052.807007 1460.062012 572.038269
v 1041.092773 1542.923218 457.605255
v 973.531799 1613.350952 515.177368
v 822.185303 1531.892700 601.546875
v 899.102966 1383.904785 -321.868866
v 706.754761 1609.786377 574.311890
v 167.741272 1680.913330 453.840851
v 427.284607 1407.295288 598.010132
v 556.541443 1601.319580 595.881042
v 711.596558 1510.774414 616.428162
v 576.490234 1495.188843 589.347534
v 1234.680786 1345.827759 263.576416
v 466.460327 1173.093384 701.814941
v 1022.848206 1257.704956 -278.370819
v 582.568420 1253.648560 750.491516
v 1095.835083 1348.012451 -138.854492
v 393.994965 1170.527588 554.589355
v 740.710999 954.739441 492.501770
v 622.945679 1702.528931 348.938599
v 1129.675903 1280.755127 668.854614
v 1076.560181 1395.967651 494.894012
v 198.972946 1533.825073 307.995636
v 249.024750 1522.793091 466.806396
v 966.996948 1762.012451 -56.915951
v 1016.420166 1702.737427 48.352306
v 908.069397 1769.422363 80.888680
v 796.593506 1765.966064 97.178207
v 737.079590 1745.266968 66.907135
v 748.454773 1548.679565 -234.670471
v 906.110962 1745.816772 -246.982956
v 372.404327 1461.765137 545.126465
v 472.956940 1493.155151 578.853149
v 309.988983 1690.088867 276.288757
v 317.890350 1590.726318 552.197998
v 983.462524 1633.886719 -307.801086
v 1192.424805 1470.518921 231.923676
v 1013.944641 1381.267334 -259.288544
v 459.522430 1322.657593 697.867310
v 1020.187195 1391.426270 599.583557
v 1069.664307 1494.395264 -112.019661
v 1202.987793 1506.312256 182.372223
v 539.838806 1681.235718 158.152679
v 1220.096191 1255.133667 57.772163
v 1091.092407 1151.482910 -156.027435
v 568.899902 1057.764038 627.952515
v 967.644531 982.380432 559.262329
v 876.068298 1279.462891 681.080933
v 907.743164 1716.814819 193.088501
v 803.490662 1064.301636 705.927979
v 818.452759 1484.595947 -280.094055
v 1048.176758 1654.682129 120.278809
v 986.884888 259.767181 -252.629562
v 982.658752 432.460938 -48.251568
v 988.502502 565.049561 52.363895
v 860.631653 438.907654 183.035263
v 941.736023 300.322266 144.137115
v 893.702209 394.531342 65.990318
v 853.338928 262.684845 186.475494
v 838.065735 288.917480 160.972855
v 892.212219 67.224121 -275.122009
v 845.835876 128.801132 143.362274
v 911.970032 261.575256 178.742081
v 992.534729 319.574677 12.511921
v 884.327576 1268.814209 688.335205
v 567.598938 673.610596 938.462891
v 1000.712280 1064.139160 632.118225
v 285.531525 1111.875122 863.103760
v 969.752625 1193.866333 700.258911
v 543.086792 913.501892 994.205322
v 574.748901 1211.650513 786.161865
v 784.505493 813.173401 762.368164
v 760.782043 1083.320190 897.906433
v 1139.025757 1278.707031 516.305115
v 1515.182251 811.297913 130.307281
v 1108.050293 1032.025513 488.715698
v 1483.258789 1154.776001 -49.374748
v 1152.174316 1157.942993 569.292542
v 1593.314209 971.618774 73.188431
v 1286.711914 1227.233276 261.194794
v 1273.152954 927.022888 372.586487
v 1328.875610 1138.990234 401.976013
vn -0.050080 -0.249770 0.967009
vn -0.243400 -0.272667 0.930811
vn -0.025734 -0.652800 0.757093
vn -0.263101 0.932923 -0.245830
vn -0.356073 0.759300 -0.544679
vn -0.564810 0.754269 -0.334765
vn -0.262844 -0.869488 -0.418216
vn -0.065964 -0.981563 -0.179395
vn -0.139122 -0.981307 -0.132972
vn 0.918798 0.207625 0.335713
vn 0.973581 0.113250 0.198279
vn 0.878022 0.396654 0.267850
vn 0.102217 0.630822 -0.769166
vn 0.177233 0.437604 -0.881527
vn 0.002883 0.448714 -0.893671
vn -0.382425 -0.742998 0.549276
vn -0.501573 -0.314888 0.805773
vn -0.703348 -0.468529 0.534586
vn -0.538613 0.641120 0.546682
vn -0.216586 0.677574 0.702840
vn -0.281974 0.871946 0.400251
vn -0.304456 -0.673655 -0.673421
vn -0.426888 -0.800904 -0.419904
vn -0.065549 0.827602 -0.557475
vn 0.172236 0.793370 -0.583865
vn -0.875685 0.445347 -0.186661
vn -0.449543 0.856961 0.252049
vn -0.504542 0.642108 0.577179
vn -0.052542 0.325621 0.944039
vn -0.727894 0.079653 0.681048
vn -0.401467 0.113184 0.908853
vn 0.995775 -0.076289 -0.051102
vn 0.887477 -0.100904 0.449670
vn 0.945863 -0.299976 -0.123928
vn -0.238239 0.546580 -0.802803
vn -0.751083 0.456745 -0.476716
vn -0.236687 0.283831 -0.929204
vn 0.332174 0.518048 -0.788217
vn 0.289304 0.630088 -0.720619
vn -0.053801 0.423978 -0.904073
vn 0.150939 -0.062057 -0.986593
vn 0.082368 -0.648422 -0.756812
vn 0.049688 -0.099863 -0.993760
vn -0.028687 -0.984011 -0.175782
vn 0.004709 -0.982121 -0.188194
vn 0.408469 0.510403 -0.756731
vn 0.308881 0.905994 -0.289427
vn 0.134841 0.926428 -0.351494
vn 0.021241 -0.226596 0.973757
vn -0.037573 -0.658448 0.751688
vn -0.067467 -0.681159 0.729021
vn -0.126997 0.421751 0.897774
vn 0.016424 0.694503 0.719302
vn 0.008273 0.555386 0.831552
vn -0.265048 0.750830 0.604982
vn -0.265068 0.423256 0.866368
vn 0.006870 0.423174 0.906023
vn -0.758407 0.078119 0.647083
vn -0.533845 -0.051152 0.844034
vn -0.480089 0.220283 0.849111
vn -0.762777 -0.176247 0.622180
vn 0.692985 0.040546 -0.719811
vn 0.986357 -0.151831 -0.063616
vn 0.123556 0.420546 0.898818
vn 0.131686 0.115117 0.984585
vn 0.145033 0.368878 0.918093
vn -0.073325 0.054447 0.995821
vn 0.201007 0.047435 0.978441
vn 0.103210 -0.502820 0.858207
vn 0.233798 -0.732961 0.638833
vn -0.595517 0.750351 0.286939
vn 0.037428 0.893085 0.448329
vn -0.014002 0.874675 0.484508
vn -0.037935 0.782340 0.621696
vn 0.133668 -0.974843 0.178364
vn -0.022341 -0.993010 0.115893
vn -0.003878 -0.999433 -0.033459
vn -0.068623 -0.978930 0.192319
vn -0.034615 -0.997944 -0.053946
vn 0.020469 0.997089 -0.073451
vn -0.031683 0.974651 0.221475
vn 0.121460 0.956964 0.263567
vn 0.201996 0.978714 -0.036297
vn -0.390864 0.455118 0.800058
vn 0.647958 0.227296 0.726971
vn 0.749072 -0.621919 0.228273
vn 0.788278 -0.615023 -0.019078
vn -0.022714 0.690984 0.722513
vn -0.154412 -0.671612 0.724634
vn -0.019325 0.971378 -0.236750
vn 0.143375 0.986058 0.084455
vn -0.308305 0.950411 -0.040821
vn 0.146903 0.123775 -0.981376
vn 0.157349 0.321679 0.933683
vn -0.166743 -0.282865 0.944555
vn -0.146071 -0.477400 0.866460
vn -0.596863 -0.318361 0.736478
vn -0.644187 -0.615554 0.454000
vn -0.813816 -0.257556 0.520930
vn 0.183959 -0.049063 -0.981709
vn 0.132670 0.210308 -0.968591
vn 0.355599 0.204836 -0.911917
vn 0.306801 0.191880 0.932231
vn -0.894484 -0.242439 -0.375661
vn -0.647292 -0.434860 -0.626027
vn -0.705167 -0.636582 -0.312254
vn 0.162469 0.127799 0.978402
vn 0.205434 0.500107 0.841243
vn 0.980439 0.116559 0.158599
vn 0.672110 0.305893 0.674313
vn 0.782861 0.091406 0.615446
vn -0.439530 0.871476 -0.217583
vn -0.330411 0.858208 -0.392820
vn 0.231429 0.966859 0.107818
vn 0.894177 0.096281 -0.437239
vn 0.930268 -0.315839 -0.186675
vn 0.861504 -0.270580 -0.429648
vn -0.557824 -0.804988 -0.202057
vn -0.812660 -0.576988 -0.081667
vn 0.864598 -0.075225 0.496802
vn 0.940238 -0.139554 0.310608
vn -0.364667 0.821947 -0.437517
vn -0.196276 0.918880 0.342251
vn -0.904201 0.154609 0.398142
vn -0.949451 0.313328 -0.019201
vn -0.992526 0.115322 0.039909
vn -0.150856 0.949263 0.275939
vn 0.012699 0.986533 0.163067
vn -0.364549 0.910538 -0.195002
vn 0.114763 -0.960231 0.254532
vn 0.440396 -0.873339 0.208162
vn 0.789850 -0.512431 0.336974
vn 0.179186 -0.983540 -0.023284
vn -0.815232 0.430271 0.387638
vn -0.703772 0.336753 0.625541
vn 0.154018 0.286986 -0.945472
vn 0.105445 0.346285 -0.932184
vn -0.152089 0.535501 -0.830727
vn -0.178707 0.316468 0.931618
vn 0.172150 0.361714 0.916257
vn 0.026785 0.307615 0.951134
vn -0.068842 0.353779 0.932792
vn -0.023288 0.125274 -0.991849
vn 0.284182 0.409229 -0.867048
vn 0.230081 0.165761 -0.958950
vn -0.743993 0.535308 -0.399901
vn -0.544200 0.545524 -0.637378
vn -0.854553 0.341979 -0.390884
vn -0.218436 0.517122 -0.827569
vn 0.678996 0.664837 0.311377
vn 0.687479 0.724477 -0.050057
vn 0.684282 0.729085 -0.013876
vn 0.435429 0.705734 0.558875
vn 0.355408 0.907192 0.225137
vn 0.134156 0.923581 0.359166
vn -0.100186 0.511139 0.853639
vn -0.044579 0.421247 0.905850
vn 0.634044 -0.035180 0.772497
vn 0.237135 0.089964 -0.967302
vn 0.183133 -0.071156 -0.980510
vn 0.185697 0.008371 -0.982571
vn -0.253844 0.018755 0.967063
vn -0.389281 -0.391572 -0.833746
vn -0.065759 -0.152388 -0.986131
vn -0.027366 -0.326405 -0.944834
vn -0.981139 -0.190397 0.033396
vn -0.861322 -0.485051 0.151160
vn -0.766852 0.508873 0.391134
vn -0.848293 -0.317418 -0.423845
vn -0.395605 0.408632 0.822506
vn -0.421204 0.798235 -0.430589
vn -0.018315 0.517133 0.855709
vn -0.071371 0.761657 0.644038
vn -0.416483 0.073550 0.906164
vn -0.855305 0.498492 0.141273
vn -0.832599 0.525815 -0.174063
vn -0.361104 0.264402 -0.894257
vn -0.704238 0.085949 0.704743
vn -0.459858 -0.389995 0.797769
vn -0.718878 -0.218247 0.659987
vn 0.984620 -0.119641 -0.127320
vn 0.780019 0.621442 0.073342
vn 0.970521 0.168821 -0.172013
vn 0.797089 -0.372122 -0.475578
vn -0.244681 -0.351065 -0.903817
vn 0.202358 0.594742 -0.778032
vn 0.652206 -0.025823 -0.757602
vn -0.416894 -0.049530 -0.907605
vn -0.541571 -0.099497 0.834746
vn -0.192339 0.108471 0.975315
vn -0.193192 0.980093 0.045763
vn -0.148363 0.877431 -0.456183
vn -0.159609 0.331742 0.929770
vn -0.839549 0.543149 -0.012101
vn -0.916621 0.174895 -0.359468
vn 0.297121 0.954763 0.012072
vn 0.872809 0.142603 -0.466764
vn 0.731727 0.202012 -0.650974
vn 0.861178 0.314955 -0.398968
vn 0.894992 0.423804 0.139209
vn 0.783070 0.511392 0.353948
vn 0.846959 0.376325 0.375552
vn 0.668835 0.448676 0.592747
vn 0.607915 0.242502 0.756063
vn 0.947708 0.294490 -0.122988
vn 0.984616 0.116286 -0.130421
vn 0.763207 0.214852 -0.609388
vn 0.881446 0.054692 -0.469107
vn 0.737389 0.170677 -0.653549
vn 0.017159 0.683109 0.730115
vn -0.055306 0.411627 0.909673
vn 0.798248 0.454817 -0.394894
vn 0.887617 0.460531 0.006885
vn 0.416067 0.871271 0.260337
vn -0.120397 0.970376 -0.209461
vn -0.410841 0.860055 -0.302515
vn 0.956606 -0.092611 -0.276274
vn 0.918843 -0.015107 -0.394334
vn 0.901999 -0.287844 -0.321781
vn -0.115732 0.808485 -0.577024
vn 0.246642 -0.933044 0.261910
vn 0.518776 -0.656426 0.547701
vn -0.090715 -0.261889 0.960825
vn -0.111389 0.162564 0.980390
vn 0.906208 -0.414132 0.085331
vn 0.711236 -0.702945 -0.003229
vn 0.820779 -0.560536 -0.110096
vn -0.598179 0.330412 0.730076
vn -0.421371 0.785362 -0.453490
vn 0.844686 0.288651 0.450762
vn 0.760831 0.432860 0.483497
vn 0.773080 0.134610 0.619860
vn 0.967097 -0.247881 0.057252
vn 0.536832 -0.843383 -0.022705
vn 0.461694 -0.034556 0.886366
vn 0.975681 -0.042896 0.214957
vn 0.967992 -0.066332 0.242055
vn 0.847818 -0.529624 0.026528
vn 0.671988 -0.574504 0.467309
vn 0.679375 -0.710284 -0.184245
vn 0.150377 -0.238839 0.959345
vn 0.001533 -0.092717 0.995691
vn 0.146522 -0.128079 0.980881
vn 0.142852 -0.092018 -0.985457
vn -0.032394 -0.260962 -0.964806
vn -0.130003 -0.473430 -0.871185
vn -0.043857 0.882855 -0.467594
vn 0.156280 0.975893 -0.152347
vn -0.768296 -0.561672 0.306996
vn -0.470314 -0.868865 0.154527
vn 0.911337 -0.411028 0.022835
vn 0.224682 -0.960929 -0.161656
vn 0.382842 -0.183807 -0.905343
vn 0.305220 0.005635 -0.952265
vn 0.062156 0.596360 0.800307
vn -0.095946 -0.943894 0.316005
vn -0.181684 -0.791120 -0.584055
vn 0.263266 -0.441219 0.857914
vn 0.227492 0.025730 0.973440
vn 0.024466 -0.624531 0.780616
vn 0.621879 -0.585687 -0.519844
vn 0.334990 -0.672970 -0.659464
vn 0.741722 -0.285761 -0.606786
vn -0.086207 -0.723856 -0.684544
vn 0.411781 0.715505 -0.564349
vn -0.723232 0.066044 -0.687440
vn -0.428799 0.013968 -0.903292
vn -0.690515 0.327161 -0.645100
vn 0.194433 0.115504 -0.974092
vn 0.393220 0.172816 -0.903058
vn 0.192816 -0.063662 0.979168
vn 0.119668 -0.802883 0.584001
vn -0.350630 -0.720008 0.598872
vn 0.261127 0.176751 0.948985
vn 0.092044 -0.172790 0.980649
vn 0.266347 -0.051725 -0.962488
vn 0.180508 -0.106175 -0.977826
vn -0.136194 -0.990251 0.029224
vn -0.893370 -0.222681 0.390260
vn -0.492261 0.870350 -0.013017
vn -0.296187 0.951762 0.080143
vn 0.283247 0.955311 -0.084566
vn 0.690489 -0.648815 0.319788
vn 0.926853 -0.200483 0.317413
vn -0.916547 0.115796 -0.382796
vn -0.730951 -0.679449 0.063715
vn -0.415584 -0.904559 -0.095199
vn 0.750766 -0.119619 -0.649647
vn 0.509212 0.303151 -0.805482
vn -0.005491 0.376518 0.926393
vn -0.069807 -0.916717 0.393391
vn -0.200392 -0.749705 0.630702
vn -0.672853 0.739718 0.009318
vn -0.820006 0.139865 0.555002
vn 0.850503 0.325358 0.413263
vn 0.148121 0.439164 0.886113
vn 0.089978 0.485989 0.869321
vn -0.416559 0.398108 0.817306
vt 0.180208 0.373804
vt 0.081519 0.396238
vt 0.226265 0.277088
vt 0.316689 0.912741
vt 0.328264 0.892394
vt 0.242703 0.877365
vt 0.354460 0.503502
vt 0.488199 0.414262
vt 0.258813 0.407401
vt 0.787285 0.448482
vt 0.872040 0.491653
vt 0.881196 0.533521
vt 0.490403 0.859735
vt 0.581207 0.786553
vt 0.465627 0.835953
vt 0.104607 0.370018
vt 0.064319 0.418868
vt 0.073128 0.431854
vt 0.078727 0.777942
vt 0.091790 0.743487
vt 0.142689 0.822652
vt 0.344255 0.544694
vt 0.292159 0.535896
vt 0.405212 0.900943
vt 0.480576 0.872813
vt 0.488425 0.723423
vt 0.469764 0.710488
vt 0.458582 0.683677
vt 0.469329 0.529754
vt 0.490061 0.595665
vt 0.478868 0.636539
vt 0.880650 0.374462
vt 0.806203 0.320882
vt 0.850692 0.274389
vt 0.805326 0.743188
vt 0.851818 0.770685
vt 0.845042 0.718300
vt 0.735303 0.640770
vt 0.699736 0.704154
vt 0.774035 0.664808
vt 0.291997 0.427853
vt 0.258361 0.339850
vt 0.264713 0.456289
vt 0.840584 0.438974
vt 0.874994 0.378578
vt 0.844958 0.373314
vt 0.682760 0.736499
vt 0.622861 0.777245
vt 0.450656 0.886861
vt 0.385618 0.220643
vt 0.317456 0.229943
vt 0.407275 0.162577
vt 0.372884 0.558145
vt 0.288302 0.664398
vt 0.386778 0.506733
vt 0.406592 0.682357
vt 0.391333 0.626327
vt 0.439048 0.621627
vt 0.023129 0.609072
vt 0.035379 0.518546
vt 0.026120 0.615177
vt 0.041307 0.516638
vt 0.629040 0.257260
vt 0.569012 0.346699
vt 0.619235 0.359166
vt 0.305218 0.443021
vt 0.286887 0.383186
vt 0.386535 0.443777
vt 0.173923 0.457684
vt 0.581045 0.454061
vt 0.596526 0.401464
vt 0.672536 0.364795
vt 0.118945 0.820951
vt 0.347252 0.764771
vt 0.213827 0.808596
vt 0.318363 0.716935
vt 0.625054 0.266936
vt 0.642893 0.363438
vt 0.744659 0.372142
vt 0.645139 0.420912
vt 0.558819 0.386807
vt 0.371156 0.340499
vt 0.362228 0.899704
vt 0.304224 0.888657
vt 0.398544 0.827247
vt 0.450070 0.854336
vt 0.057309 0.699001
vt 0.765151 0.222583
vt 0.776008 0.186177
vt 0.800897 0.202815
vt 0.139465 0.696719
vt 0.145787 0.327097
vt 0.542505 0.744386
vt 0.443867 0.819437
vt 0.510434 0.743627
vt 0.341226 0.564992
vt 0.458969 0.498775
vt 0.527106 0.488695
vt 0.518684 0.514801
vt 0.490297 0.523233
vt 0.492678 0.481990
vt 0.473372 0.508563
vt 0.400673 0.723596
vt 0.413338 0.773378
vt 0.319728 0.616468
vt 0.442045 0.392108
vt 0.185460 0.645647
vt 0.265147 0.647208
vt 0.191483 0.606028
vt 0.694790 0.440524
vt 0.634591 0.478693
vt 0.668331 0.222609
vt 0.615106 0.315512
vt 0.638292 0.151077
vt 0.833027 0.782642
vt 0.742134 0.783103
vt 0.801297 0.773240
vt 0.915409 0.534385
vt 0.903267 0.482610
vt 0.911442 0.504183
vt 0.178402 0.511163
vt 0.143107 0.591015
vt 0.734921 0.349161
vt 0.732107 0.268460
vt 0.650096 0.756788
vt 0.428917 0.710556
vt 0.350830 0.231724
vt 0.046603 0.657142
vt 0.124857 0.730540
vt 0.119525 0.668797
vt 0.631512 0.741262
vt 0.728527 0.771825
vt 0.682709 0.779204
vt 0.709516 0.378134
vt 0.745075 0.363900
vt 0.781346 0.383033
vt 0.744236 0.250930
vt 0.058471 0.734402
vt 0.029223 0.674125
vt 0.677048 0.678476
vt 0.870888 0.678571
vt 0.856082 0.603865
vt 0.807051 0.645192
vt 0.088180 0.584014
vt 0.643099 0.606191
vt 0.685098 0.521468
vt 0.710837 0.518650
vt 0.354430 0.843912
vt 0.281605 0.780083
vt 0.677288 0.626852
vt 0.620206 0.626333
vt 0.216968 0.842118
vt 0.299926 0.855677
vt 0.190268 0.748030
vt 0.347967 0.865708
vt 0.814037 0.646075
vt 0.863101 0.666537
vt 0.846060 0.701272
vt 0.718815 0.633543
vt 0.758952 0.687270
vt 0.692740 0.690944
vt 0.101871 0.636884
vt 0.427195 0.520128
vt 0.622984 0.376367
vt 0.408916 0.601874
vt 0.326453 0.653409
vt 0.362988 0.639956
vt 0.070658 0.499972
vt 0.321488 0.653896
vt 0.163517 0.741559
vt 0.131192 0.677510
vt 0.124837 0.629413
vt 0.118854 0.578907
vt 0.400512 0.809168
vt 0.455075 0.766542
vt 0.446248 0.759960
vt 0.553435 0.748782
vt 0.538450 0.667144
vt 0.485397 0.709873
vt 0.464390 0.697275
vt 0.123944 0.807102
vt 0.159379 0.828144
vt 0.669450 0.606567
vt 0.339716 0.774512
vt 0.379577 0.851270
vt 0.471440 0.534494
vt 0.480310 0.490541
vt 0.463703 0.690447
vt 0.922637 0.780624
vt 0.850875 0.736473
vt 0.884290 0.723598
vt 0.911178 0.766316
vt 0.910278 0.786240
vt 0.960748 0.866499
vt 0.897282 0.725571
vt 0.883791 0.747439
vt 0.484996 0.639555
vt 0.515664 0.638616
vt 0.600973 0.753142
vt 0.534984 0.773744
vt 0.558430 0.625835
vt 0.875278 0.807617
vt 0.888115 0.804014
vt 0.862441 0.783525
vt 0.910957 0.616339
vt 0.902279 0.654373
vt 0.899515 0.667662
vt 0.759696 0.532105
vt 0.791026 0.528500
vt 0.767589 0.603202
vt 0.739666 0.549735
vt 0.739348 0.440891
vt 0.902968 0.585899
vt 0.908857 0.540682
vt 0.906417 0.609581
vt 0.908967 0.573053
vt 0.911107 0.563497
vt 0.601246 0.656915
vt 0.575467 0.608940
vt 0.900660 0.639970
vt 0.892850 0.616149
vt 0.780792 0.734237
vt 0.758156 0.785186
vt 0.641569 0.764418
vt 0.884679 0.482618
vt 0.904831 0.543265
vt 0.895578 0.510433
vt 0.475596 0.796618
vt 0.695397 0.374149
vt 0.731111 0.368037
vt 0.502570 0.441645
vt 0.505058 0.496341
vt 0.852500 0.435531
vt 0.808995 0.399873
vt 0.866625 0.455293
vt 0.517949 0.463176
vt 0.491795 0.602902
vt 0.778344 0.760899
vt 0.724352 0.213200
vt 0.723922 0.229663
vt 0.764624 0.273169
vt 0.726790 0.182145
vt 0.720820 0.169142
vt 0.744550 0.206835
vt 0.804957 0.243777
vt 0.813787 0.294875
vt 0.554119 0.101030
vt 0.697294 0.104088
vt 0.637744 0.075250
vt 0.819400 0.233069
vt 0.358072 0.306095
vt 0.492967 0.176764
vt 0.464710 0.305242
vt 0.273813 0.607012
vt 0.208823 0.486184
vt 0.117183 0.575332
vt 0.670482 0.727117
vt 0.587621 0.755886
vt 0.094764 0.463106
vt 0.130929 0.404778
vt 0.837004 0.408836
vt 0.845353 0.373874
vt 0.822779 0.259505
vt 0.325061 0.408683
vt 0.391446 0.528971
vt 0.217728 0.566947
vt 0.188225 0.318102
vt 0.343831 0.543410
vt 0.106586 0.519609
vt 0.588575 0.081467
vt 0.577182 0.152793
vt 0.513429 0.103571
vt 0.361688 0.241884
vt 0.317678 0.272659
vt 0.335099 0.343296
vt 0.849778 0.274050
vt 0.819055 0.232820
vt 0.859553 0.302027
vt 0.193092 0.328276
vt 0.143860 0.389966
vt 0.173480 0.420023
vt 0.664278 0.766158
vt 0.437780 0.177873
vt 0.260218 0.696625
vt 0.318194 0.700575
vt 0.271035 0.761404
vt 0.317473 0.701729
vt 0.515502 0.636999
vt 0.605404 0.586456
vt 0.519477 0.522845
vt 0.569910 0.350180
vt 0.547001 0.416580
vt 0.570047 0.421468
vt 0.588183 0.413583
vt 0.556631 0.420693
vt 0.627841 0.394525
vt 0.521417 0.425073
vt 0.506589 0.321981
vt 0.292129 0.346719
vt 0.440824 0.676187
vt 0.314063 0.667398
vt 0.196744 0.356383
vt 0.060007 0.560225
vt 0.211528 0.882576
vt 0.258342 0.900491
vt 0.801694 0.202766
vt 0.775319 0.186988
vt 0.540810 0.807052
vt 0.741366 0.380580
vt 0.817278 0.387409
vt 0.182367 0.683691
vt 0.143239 0.499238
vt 0.177210 0.443609
vt 0.072246 0.499140
vt 0.679608 0.112119
vt 0.601124 0.104183
vt 0.534633 0.184334
vt 0.689274 0.150056
vt 0.388015 0.444120
vt 0.874626 0.377046
vt 0.883204 0.557712
vt 0.900039 0.605617
vt 0.183260 0.510891
vt 0.640434 0.387010
vt 0.556237 0.419921
vt 0.721677 0.169953
vt 0.887857 0.443143
vt 0.840230 0.438542
vt 0.660724 0.187141
vt 0.738086 0.378041
vt 0.165038 0.855507
vt 0.590115 0.732158
vt 0.484809 0.555732
vt 0.735566 0.637600
vt 0.787475 0.594208
vt 0.518806 0.780214
vt 0.530616 0.292908
vt 0.425716 0.848020
vt 0.274777 0.781850
vt 0.329221 0.783729
vt 0.870629 0.592910
vt 0.566220 0.501348
vt 0.573137 0.546657
vt 0.479902 0.562833
vt 0.741214 0.381249
f 180/1/1 3/2/2 50/3/3
f 100/4/4 158/5/5 171/6/6
f 14/7/7 107/8/8 97/9/9
f 146/10/10 216/11/11 247/12/12
f 45/13/13 163/14/14 169/15/15
f 4/16/16 62/17/17 1/18/18
f 6/19/19 9/20/20 10/21/21
f 13/22/22 14/7/7 11/23/23
f 45/13/13 17/24/24 47/25/25
f 257/26/26 130/27/27 25/28/28
f 26/29/29 27/30/30 205/31/31
f 176/32/32 289/33/33 287/34/34
f 264/35/35 35/36/36 285/37/37
f 160/38/38 37/39/39 36/40/40
f 39/41/41 43/42/42 42/43/43
f 109/44/44 43/45/42 40/46/45
f 45/13/13 47/25/25 44/47/46
f 48/48/47 47/25/25 16/49/48
f 49/50/49 52/51/50 54/52/51
f 57/53/52 60/54/53 198/55/54
f 55/56/55 58/57/56 59/58/57
f 61/59/58 173/60/59 186/61/60
f 172/62/61 173/60/59 61/59/58
f 176/63/32 177/64/62 76/65/63
f 87/66/64 86/67/65 83/68/66
f 84/69/67 86/67/65 87/66/64
f 212/70/68 284/71/69 96/72/70
f 10/21/21 167/73/71 6/19/19
f 133/74/72 8/75/73 56/76/74
f 20/77/75 51/78/76 136/79/77
f 51/78/76 53/80/78 136/79/77
f 107/8/8 109/81/44 108/82/79
f 99/83/80 124/84/81 132/85/82 104/86/83
f 9/20/20 6/19/19 168/87/84
f 291/88/85 102/89/86 101/90/87
f 7/91/88 198/55/54 60/54/53
f 5/92/89 50/3/3 3/2/2
f 105/93/90 135/94/91 129/95/92
f 39/41/41 42/43/43 88/96/93
f 150/97/94 80/98/95 196/99/96
f 252/100/97 217/101/98 197/102/99
f 87/66/64 83/68/66 198/55/54
f 90/103/100 199/104/101 153/105/102
f 83/68/66 81/106/103 150/97/94
f 183/107/104 63/108/105 112/109/106
f 212/70/68 95/110/107 282/111/108
f 138/112/109 77/113/110 18/114/111
f 224/115/112 263/116/113 261/117/114
f 278/118/115 215/119/116 221/120/117
f 132/85/82 135/94/91 104/86/83
f 98/121/118 114/122/119 112/109/106
f 110/123/120 290/124/121 289/33/33
f 108/82/79 97/9/9 107/8/8
f 129/95/92 131/125/122 105/93/90
f 138/112/109 290/124/121 110/123/120
f 134/126/123 129/95/92 135/94/91
f 53/127/78 108/82/79 109/81/44
f 138/112/109 110/123/120 77/113/110
f 143/128/124 115/129/125 144/130/126
f 254/131/127 213/132/128 145/133/129
f 147/134/130 229/135/131 228/136/132
f 130/27/27 129/95/92 134/126/123
f 136/79/77 126/137/133 20/77/75
f 6/19/19 202/138/134 187/139/135
f 44/47/46 153/140/102 163/14/14
f 240/141/136 194/142/137 159/143/138
f 192/144/139 168/87/84 186/61/60
f 239/145/140 235/146/141 274/147/142
f 169/15/15 199/148/101 188/149/143
f 153/140/102 149/150/144 195/151/145
f 154/152/146 193/153/147 191/154/148
f 148/155/149 158/5/5 17/24/24
f 159/143/138 160/38/38 36/40/40
f 163/14/14 45/13/13 44/47/46
f 225/156/150 165/157/151 286/158/152
f 238/159/153 230/160/154 226/161/155
f 157/162/156 168/87/84 192/144/139
f 150/97/94 162/163/157 198/55/54
f 77/113/110 110/123/120 140/164/158
f 178/165/159 181/166/160 92/167/161
f 174/168/162 180/1/1 84/69/67
f 175/169/163 69/170/164 65/171/165
f 184/172/166 114/122/119 141/173/167
f 94/174/168 218/175/169 242/176/170
f 231/177/171 130/27/27 257/26/26
f 244/178/172 185/179/173 269/180/174
f 150/97/94 198/55/54 83/68/66
f 186/61/60 187/139/135 61/59/58
f 115/129/125 156/181/175 155/182/176
f 194/183/137 195/151/145 149/150/144
f 68/184/177 193/153/147 148/185/149
f 151/186/178 197/102/99 248/187/179
f 25/28/28 258/188/180 257/26/26
f 93/189/181 260/190/182 164/191/183
f 270/192/184 220/193/185 206/194/186
f 214/195/187 116/196/188 220/193/185
f 130/27/27 231/177/171 129/95/92
f 266/197/189 267/198/190 269/180/174
f 267/198/190 244/178/172 269/180/174
f 204/199/191 185/179/173 244/178/172
f 204/199/191 268/200/192 185/179/173
f 267/198/190 246/201/193 244/178/172
f 205/31/31 258/188/180 25/28/28
f 224/115/112 265/202/194 203/203/195
f 35/36/36 224/115/112 203/203/195
f 270/192/184 214/195/187 220/193/185
f 93/189/181 270/192/184 206/194/186
f 164/191/183 214/195/187 270/192/184
f 116/196/188 203/203/195 220/193/185
f 116/196/188 214/195/187 240/141/136
f 285/37/37 116/196/188 240/141/136
f 224/115/112 261/117/114 259/204/196
f 259/204/196 261/117/114 260/190/182
f 260/190/182 93/189/181 259/204/196
f 231/177/171 257/26/26 268/200/192
f 258/188/180 218/175/169 257/26/26
f 251/205/197 272/206/198 275/207/199
f 256/208/200 201/209/201 237/210/202
f 236/211/203 256/208/200 237/210/202
f 274/147/142 95/110/107 255/212/204
f 190/213/205 117/214/206 278/118/115
f 249/215/207 208/216/208 72/217/209
f 239/145/140 241/218/210 245/219/211
f 242/176/170 269/180/174 185/179/173
f 242/176/170 258/188/180 269/180/174
f 242/176/170 218/175/169 258/188/180
f 233/220/212 286/158/152 276/221/213
f 238/159/153 239/145/140 236/211/203
f 225/156/150 286/158/152 283/222/214
f 260/190/182 275/207/199 164/191/183
f 260/190/182 286/158/152 275/207/199
f 237/210/202 225/156/150 238/159/153
f 241/218/210 244/178/172 246/201/193
f 276/221/213 165/157/151 225/156/150
f 236/211/203 255/212/204 256/208/200
f 228/136/132 146/10/10 255/212/204
f 254/131/127 145/133/129 204/199/191
f 247/12/12 117/214/206 190/213/205
f 262/223/215 263/116/113 145/133/129
f 277/224/216 263/116/113 131/125/122
f 261/117/114 286/158/152 260/190/182
f 261/117/114 263/116/113 262/223/215
f 75/225/217 279/226/218 222/227/219
f 224/115/112 259/204/196 265/202/194
f 206/194/186 203/203/195 265/202/194
f 207/228/220 218/175/169 94/174/168
f 207/228/220 268/200/192 218/175/169
f 268/200/192 257/26/26 218/175/169
f 96/72/70 281/229/221 227/230/222
f 248/187/179 209/231/223 250/232/224
f 278/118/115 208/216/208 190/213/205
f 232/233/225 216/11/11 146/10/10
f 216/11/11 215/119/116 117/214/206
f 232/233/225 118/234/226 223/235/227
f 95/110/107 96/72/70 255/212/204
f 204/199/191 244/178/172 254/131/127
f 262/223/215 213/132/128 261/117/114
f 226/161/155 241/218/210 238/159/153
f 212/70/68 96/72/70 95/110/107
f 284/71/69 212/70/68 209/236/223
f 222/227/219 279/226/218 221/120/117
f 266/197/189 27/30/30 243/237/228
f 268/200/192 242/176/170 185/179/173
f 268/200/192 207/228/220 242/176/170
f 207/228/220 94/174/168 242/176/170
f 265/202/194 259/204/196 206/194/186
f 220/193/185 203/203/195 206/194/186
f 93/189/181 206/194/186 259/204/196
f 34/238/229 131/125/122 224/115/112
f 204/199/191 231/177/171 268/200/192
f 293/239/230 294/240/231 138/112/109
f 294/240/231 290/124/121 138/112/109
f 292/241/232 290/124/121 294/240/231
f 296/242/233 128/243/234 297/244/235
f 291/88/85 298/245/236 288/246/237
f 20/247/75 127/248/238 24/249/239
f 298/245/236 295/250/240 287/34/34
f 11/23/23 98/121/118 112/109/106 63/108/105
f 145/133/129 263/116/113 277/224/216
f 82/251/241 49/50/49 19/252/242 78/253/243
f 89/254/244 38/255/245 12/256/246 65/171/165
f 33/257/247 48/48/47 103/258/248
f 1/18/18 119/259/249 121/260/250 4/16/16
f 219/261/251 75/225/217 222/227/219
f 136/79/77 40/262/45 29/263/252 126/137/133
f 28/264/253 39/41/41 88/96/93 70/265/254
f 16/49/48 99/83/80 104/86/83
f 7/91/88 157/162/156 170/266/255 198/55/54
f 4/16/16 5/92/89 3/2/2 62/17/17
f 2/267/256 5/92/89 4/16/16
f 9/20/20 7/91/88 8/75/73 10/21/21
f 14/7/7 13/268/22 12/256/246 15/269/257
f 22/270/258 24/249/239 18/114/111 21/271/259
f 16/49/48 47/25/25 17/24/24
f 22/270/258 21/271/259 19/252/242 23/272/260
f 22/270/258 23/272/260 20/247/75 24/249/239
f 31/273/261 32/274/262 28/264/253 30/275/263
f 31/276/261 295/277/240 29/263/252 32/278/262
f 36/40/40 37/39/39 264/35/35 285/37/37
f 109/279/44 107/280/8 41/281/264 43/42/42
f 43/42/42 41/281/264 38/255/245 42/43/43
f 52/51/50 50/3/3 2/267/256 53/127/78
f 46/282/265 47/25/25 48/48/47
f 44/47/46 47/25/25 46/282/265
f 53/127/78 51/283/76 54/52/51 52/51/50
f 58/57/56 57/53/52 162/163/157 59/58/57
f 57/53/52 58/57/56 60/54/53
f 55/56/55 56/76/74 60/54/53 58/57/56
f 175/169/163 63/108/105 66/284/266 67/285/267
f 186/61/60 173/60/59 174/168/162
f 67/285/267 66/284/266 64/286/268 68/184/177
f 68/184/177 188/149/143 69/170/164 67/287/267
f 178/165/159 71/288/269 74/289/270 177/290/62
f 175/169/163 67/287/267 69/170/164
f 177/291/62 74/292/270 72/293/209 75/294/217
f 79/295/271 140/164/158 253/296/272 280/297/273
f 76/65/63 177/64/62 75/294/217
f 140/164/158 79/295/271 77/113/110
f 80/98/95 79/295/271 280/297/273 217/101/98
f 79/295/271 80/98/95 150/97/94 81/106/103
f 81/106/103 179/298/274 77/113/110 79/295/271
f 84/69/67 180/1/1 85/299/275 86/67/65
f 181/166/160 90/103/100 91/300/276 92/167/161
f 90/103/100 181/166/160 182/301/277
f 4/16/16 121/260/250 137/302/278 2/267/256
f 266/197/189 205/31/31 27/30/30
f 119/259/249 1/18/18 172/62/61 142/303/279
f 18/114/111 24/249/239 127/248/238 138/112/109
f 100/4/4 123/304/280 125/305/281
f 100/4/4 125/305/281 99/83/80
f 101/306/87 102/307/86 126/137/133
f 134/126/123 133/74/72 56/76/74 55/56/55
f 135/94/91 105/93/90 103/258/248 106/308/282
f 139/309/283 110/123/120 111/310/284 219/261/251
f 104/86/83 135/94/91 106/308/282
f 289/33/33 111/310/284 110/123/120
f 144/130/126 115/129/125 191/154/148 113/311/285
f 113/311/285 183/107/104 184/172/166 144/130/126
f 168/87/84 157/162/156 7/91/88 9/20/20
f 254/131/127 244/178/172 241/218/210
f 120/312/286 98/121/118 122/313/287
f 17/24/24 100/4/4 99/83/80 16/49/48
f 13/268/22 175/169/163 65/171/165 12/256/246
f 100/4/4 17/24/24 158/5/5
f 11/23/23 63/108/105 175/169/163 13/22/22
f 15/269/257 41/281/264 107/280/8 14/314/7
f 38/255/245 41/281/264 15/269/257 12/256/246
f 37/39/39 46/282/265 48/48/47 33/257/247
f 160/38/38 44/47/46 46/282/265 37/39/39
f 295/315/240 31/316/261 30/317/263 287/318/34
f 70/265/254 73/319/288 30/275/263 28/264/253
f 101/306/87 126/137/133 29/263/252 295/277/240
f 55/56/55 25/28/28 130/27/27 134/126/123
f 21/271/259 179/298/274 78/253/243 19/252/242
f 77/113/110 179/298/274 21/271/259 18/114/111
f 23/272/260 54/52/51 51/283/76 20/247/75
f 19/252/242 49/50/49 54/52/51 23/272/260
f 7/91/88 60/54/53 56/76/74 8/75/73
f 32/278/262 29/263/252 40/262/45 43/320/42
f 39/41/41 28/264/253 32/274/262 43/42/42
f 25/28/28 55/56/55 59/58/57 205/31/31
f 2/267/256 50/3/3 5/92/89
f 26/29/29 205/31/31 59/58/57 162/163/157
f 52/51/50 85/299/275 180/1/1 50/3/3
f 53/127/78 2/267/256 137/302/278
f 49/50/49 82/251/241 85/299/275 52/51/50
f 72/217/209 74/321/270 194/142/137 189/322/289
f 42/43/43 38/255/245 89/254/244
f 62/17/17 172/62/61 1/18/18
f 68/184/177 64/286/268 193/153/147
f 71/288/269 195/151/145 194/183/137 74/289/270
f 182/301/277 69/170/164 188/149/143 90/103/100
f 152/323/290 84/69/67 87/66/64
f 153/105/102 91/300/276 90/103/100
f 65/171/165 69/170/164 182/301/277 89/254/244
f 78/253/243 179/298/274 85/299/275 82/251/241
f 83/68/66 86/67/65 81/106/103
f 92/167/161 91/300/276 71/288/269 178/165/159
f 174/168/162 3/2/2 180/1/1
f 253/296/272 147/134/130 211/324/291
f 70/265/254 88/96/93 181/166/160 178/165/159
f 66/284/266 113/311/285 191/154/148 64/286/268
f 248/187/179 217/101/98 280/297/273 210/325/292
f 11/23/23 14/7/7 122/313/287 98/121/118
f 97/9/9 122/313/287 14/7/7
f 48/48/47 16/49/48 104/86/83 106/308/282
f 124/84/81 99/83/80 125/305/281
f 126/137/133 102/307/86 128/326/234
f 34/238/229 33/257/247 131/125/122
f 219/261/251 111/310/284 76/327/63 75/225/217
f 106/308/282 103/258/248 48/48/47
f 40/262/45 136/79/77 109/328/44
f 223/235/227 222/227/219 221/120/117 215/119/116
f 102/89/86 291/88/85 297/244/235 128/243/234
f 247/12/12 216/11/11 117/214/206
f 33/257/247 103/258/248 105/93/90 131/125/122
f 296/242/233 293/239/230 138/112/109 127/248/238 128/243/234
f 141/173/167 114/122/119 98/121/118 120/312/286
f 97/9/9 137/302/278 121/260/250 122/313/287
f 122/313/287 121/260/250 119/259/249 120/312/286
f 123/304/280 167/73/71 10/21/21 125/305/281
f 125/305/281 10/21/21 8/75/73 124/84/81
f 128/326/234 127/329/238 20/77/75 126/137/133
f 129/95/92 231/177/171 277/224/216 131/125/122
f 135/94/91 132/85/82 133/74/72 134/126/123
f 110/123/120 139/309/283 253/296/272 140/164/158
f 136/79/77 53/80/78 109/328/44
f 53/127/78 137/302/278 108/82/79
f 144/130/126 184/172/166 142/303/279 143/128/124
f 120/312/286 119/259/249 142/303/279 141/173/167
f 226/161/155 230/160/154 213/132/128
f 253/296/272 139/330/283 229/135/131
f 132/85/82 124/84/81 8/75/73 133/74/72
f 137/302/278 97/9/9 108/82/79
f 166/331/293 171/6/6 154/152/146 155/182/176
f 167/73/71 123/304/280 166/331/293
f 87/66/64 198/55/54 170/266/255 152/323/290
f 155/182/176 156/181/175 166/331/293
f 153/140/102 199/332/101 163/14/14
f 161/333/294 26/29/29 150/97/94 252/100/97
f 160/334/38 159/335/138 194/183/137 149/150/144
f 187/139/135 186/61/60 168/87/84 6/19/19
f 148/185/149 193/153/147 158/5/5
f 17/24/24 45/13/13 169/15/15 148/155/149
f 240/141/136 159/143/138 36/40/40 285/37/37
f 33/257/247 34/238/229 264/35/35 37/39/39
f 27/30/30 26/29/29 161/333/294
f 57/53/52 198/55/54 162/163/157
f 123/304/280 100/4/4 171/6/6 166/331/293
f 156/181/175 202/138/134 167/73/71 166/331/293
f 192/144/139 152/323/290 170/266/255 157/162/156
f 6/19/19 167/73/71 202/138/134
f 160/334/38 149/150/144 153/140/102 44/47/46
f 169/15/15 163/14/14 199/336/101
f 193/153/147 154/152/146 171/6/6 158/5/5
f 276/221/213 286/158/152 165/157/151
f 176/32/32 76/327/63 111/310/284 289/33/33
f 150/97/94 26/29/29 162/163/157
f 142/303/279 184/172/166 141/173/167
f 63/108/105 183/107/104 113/311/285 66/284/266
f 179/298/274 81/106/103 86/67/65 85/299/275
f 142/303/279 172/62/61 61/59/58 143/128/124
f 184/172/166 183/107/104 112/109/106 114/122/119
f 42/43/43 89/254/244 182/301/277 181/166/160
f 73/319/288 70/265/254 178/165/159 177/290/62
f 88/96/93 42/43/43 181/166/160
f 173/60/59 62/17/17 3/2/2 174/168/162
f 176/63/32 73/337/288 177/64/62
f 195/151/145 71/288/269 91/300/276 153/105/102
f 172/62/61 62/17/17 173/60/59
f 191/154/148 193/153/147 64/286/268
f 192/144/139 174/168/162 84/69/67 152/323/290
f 188/149/143 199/104/101 90/103/100
f 143/128/124 61/59/58 187/139/135 202/138/134
f 274/147/142 235/146/141 95/110/107
f 174/168/162 192/144/139 186/61/60
f 156/181/175 115/129/125 143/128/124 202/138/134
f 155/182/176 154/152/146 191/154/148 115/129/125
f 148/155/149 169/338/15 188/339/143 68/340/177
f 271/341/295 247/12/12 190/213/205
f 250/232/224 200/342/296 234/343/297
f 251/205/197 249/215/207 272/206/198
f 252/100/97 150/97/94 196/99/96
f 240/141/136 189/322/289 194/142/137
f 266/197/189 269/180/174 258/188/180 205/31/31
f 201/209/201 247/12/12 271/341/295
f 116/196/188 35/36/36 203/203/195
f 267/198/190 266/197/189 243/237/228
f 267/198/190 243/237/228 246/201/193
f 35/36/36 264/35/35 34/238/229 224/115/112
f 243/237/228 273/344/298 245/219/211 246/201/193
f 93/189/181 164/191/183 270/192/184
f 233/220/212 251/205/197 275/207/199
f 190/213/205 251/205/197 233/220/212
f 151/186/178 248/187/179 250/232/224
f 200/342/296 235/146/141 234/343/297
f 271/341/295 190/213/205 276/221/213
f 236/211/203 274/147/142 255/212/204
f 189/322/289 249/215/207 72/217/209
f 245/219/211 241/218/210 246/201/193
f 234/343/297 239/145/140 245/219/211
f 234/343/297 235/146/141 239/145/140
f 273/344/298 250/232/224 234/343/297 245/219/211
f 240/141/136 214/195/187 272/206/198
f 250/232/224 273/344/298 151/186/178
f 151/186/178 243/237/228 27/30/30 161/333/294
f 243/237/228 151/186/178 273/344/298
f 249/215/207 189/322/289 240/141/136 272/206/198
f 238/159/153 225/156/150 230/160/154
f 197/102/99 151/186/178 161/333/294 252/100/97
f 233/220/212 276/221/213 190/213/205
f 237/210/202 271/341/295 225/156/150
f 201/209/201 271/341/295 237/210/202
f 236/211/203 239/145/140 274/147/142
f 214/195/187 164/191/183 275/207/199 272/206/198
f 286/158/152 233/220/212 275/207/199
f 146/10/10 201/209/201 256/208/200 255/212/204
f 271/341/295 276/221/213 225/156/150
f 236/211/203 237/210/202 238/159/153
f 277/224/216 231/177/171 204/199/191 145/133/129
f 147/134/130 228/136/132 227/230/222 281/229/221
f 147/134/130 253/296/272 229/135/131
f 118/234/226 139/345/283 219/261/251 223/235/227
f 227/230/222 228/136/132 255/212/204
f 226/161/155 213/132/128 254/131/127
f 213/132/128 262/223/215 145/133/129
f 280/297/273 253/296/272 211/324/291 210/325/292
f 208/216/208 278/118/115 221/120/117
f 278/118/115 117/214/206 215/119/116
f 279/226/218 75/225/217 72/217/209
f 282/111/108 235/146/141 200/342/296 212/70/68
f 228/136/132 229/135/131 232/233/225
f 118/234/226 232/233/225 229/135/131
f 281/229/221 211/324/291 147/134/130
f 96/72/70 211/324/291 281/229/221
f 282/111/108 95/110/107 235/146/141
f 212/70/68 200/342/296 250/232/224 209/236/223
f 283/222/214 213/132/128 230/160/154 225/156/150
f 208/216/208 249/215/207 251/205/197
f 190/213/205 208/216/208 251/205/197
f 80/98/95 217/101/98 252/100/97 196/99/96
f 228/136/132 232/233/225 146/10/10
f 284/71/69 210/325/292 211/324/291 96/72/70
f 216/11/11 232/233/225 215/119/116
f 215/119/116 232/233/225 223/235/227
f 255/212/204 96/72/70 227/230/222
f 286/158/152 261/117/114 283/222/214
f 261/117/114 213/132/128 283/222/214
f 238/159/153 241/218/210 239/145/140
f 226/161/155 254/131/127 241/218/210
f 118/234/226 229/135/131 139/330/283
f 209/231/223 248/187/179 210/325/292 284/71/69
f 292/241/232 288/246/237 289/33/33 290/124/121
f 72/217/209 208/216/208 279/226/218
f 221/120/117 279/226/218 208/216/208
f 116/196/188 285/37/37 35/36/36
f 201/209/201 146/10/10 247/12/12
f 223/235/227 219/261/251 222/227/219
f 224/115/112 131/125/122 263/116/113
f 197/102/99 217/101/98 248/187/179
f 292/241/232 294/240/231 293/239/230 291/88/85
f 288/246/237 292/241/232 291/88/85
f 287/34/34 289/33/33 288/246/237
f 287/318/34 30/317/263 73/337/288 176/63/32
f 293/239/230 297/244/235 291/88/85
f 293/239/230 296/242/233 297/244/235
f 298/245/236 291/88/85 101/90/87
f 298/245/236 287/34/34 288/246/237
f 101/90/87 295/250/240 298/245/236

